<svg xmlns="http://www.w3.org/2000/svg" xml:space="preserve" id="katman_1" x="0" y="0" style="enable-background:new 0 0 600 450" version="1.0" viewBox="0 0 600 450"><style>.st0{fill:#e8441e}</style><path d="M154.8 187.5v61.2h35.9v-11.9h-22.9v-36.2c0-7.3-5.8-13.1-13-13.1zM197.5 207H210v41.7h-12.5zM300.2 230.7c0 4-1.9 7.8-7 7.8-4.8 0-6.5-3.7-6.5-7.7V207h-12.5v27.4c0 8.9 5.4 15.4 14.6 15.4 4.4 0 9-1.8 11.9-6.1v5h11.8V207H300l.2 23.7zM323.5 207H336v41.7h-12.5zM474 222.8l-3.4-.7c-3.6-.8-5.2-1.5-5.2-3.7 0-2 2.1-3 4.6-3 2.4 0 4.8.7 4.8 4.3h12.7c-.7-9.4-7.8-13.7-17.4-13.7-9.5 0-17.4 4.8-17.4 13.3s6.5 11.4 13.8 12.9l4 .8c3 .7 4.8 1.5 4.8 3.8 0 2.4-2 3.5-5.2 3.5-3.3 0-5.8-1.4-5.8-5.2h-13.1c.6 10.3 8.4 14.7 19.2 14.7 10.1 0 17.8-4.7 17.8-14 .2-8.4-6-11.2-14.2-13zM538 227.2c0-11.9-8.3-21.3-21.8-21.3-12.9 0-22.3 9.8-22.3 21.9 0 12.1 8.9 21.9 22.1 21.9 11.1 0 18.6-5.7 21.1-14.6h-12c-1.8 3.1-4.7 4.6-8.9 4.6-5.6 0-9.3-3.5-10.4-8.8H538v-3.7zm-31.6-4.4c1.5-4.1 4.9-6.8 9.8-6.8s8.4 2.6 9.7 6.8h-19.5zM431.7 209.3c-3.4-2-7.3-3.2-11.5-3.2-12.2 0-22.1 9.9-22.1 22.1 0 12.2 9.9 22.1 22.1 22.1 4.2 0 8.2-1.2 11.5-3.2v1.6h11.9V207h-11.9v2.3zm-11.6 29.9c-6.1 0-11-4.9-11-11s4.9-11 11-11 11 4.9 11 11-4.8 11-11 11zM371.7 206.1c-4.8-.3-9.2.9-13 3.2v-15.8c0-6.6-5.3-11.9-11.9-11.9v67h11.9V247c3.4 2 7.3 3.2 11.5 3.2 12.7 0 22.9-10.8 22.1-23.7-.7-10.8-9.6-19.7-20.6-20.4zm-1.5 33.1c-6.1 0-11-4.9-11-11s4.9-11 11-11 11 4.9 11 11-4.8 11-11 11zM203.8 187.5c-4 0-7.3 3.3-7.3 7.3s3.3 7.3 7.3 7.3 7.3-3.3 7.3-7.3-3.3-7.3-7.3-7.3zM329.7 187.5c-4 0-7.3 3.3-7.3 7.3s3.3 7.3 7.3 7.3 7.3-3.3 7.3-7.3c.1-4-3.2-7.3-7.3-7.3zM252.1 207v2.5c-3.8-2.3-8.2-3.6-13-3.3-11 .6-20 9.5-20.7 20.5-.9 12.9 9.3 23.7 22.1 23.7 4 0 7.7-1.1 11-2.9v17.7c0 6.9 5.6 12.5 12.5 12.5V207h-11.9zm-11.3 32.2c-6.1 0-11-4.9-11-11s4.9-11 11-11 11 4.9 11 11-4.9 11-11 11z" class="st0"/><ellipse cx="94" cy="185.9" class="st0" rx="31.7" ry="12.7"/><path d="M94.8 241.9c-10.1 2.4-20.6 4.9-27.3 9.4-3.4-2.1-5.2-4.5-5.2-6.7 0-10.1 16.8-13.9 33.1-17.6 11.7-2.6 23.7-5.4 30.4-10.8v8.9c0 9.3-15.8 13.1-31 16.8zM94.2 221.6c-12.4 2.8-25 5.7-31.9 11.6v-2c0-17.6 19.3-22.1 37.9-26.4 13.5-3.2 20.1-4.8 25.6-9.3v9.8c0 9.2-16.1 12.8-31.6 16.3zM125.8 236c-6.6 5.6-18.3 8.4-29.8 11.1-8.2 2-16.6 4-22.6 6.9 5.4 1.9 12.5 3.2 20.6 3.2 18.5 0 31.7-6.7 31.7-12.7V236z" class="st0"/></svg>