<svg xmlns="http://www.w3.org/2000/svg" xml:space="preserve" width="800" height="800" fill="#066da5" viewBox="0 0 360 360"><path d="M344.377 125.605h-48.754V77.834L212.601 0H15.623v360h280v-51.668h48.754V125.605zm-30 152.727h-210V155.605h210v122.727z"/><path d="M149.671 235.093c-2.516 0-4.968-.306-7.36-.92-2.392-.613-4.57-1.364-6.532-2.254-1.963-.888-3.665-1.778-5.106-2.668-1.442-.888-2.438-1.61-2.99-2.162l-5.612 10.948c3.802 2.7 8.096 4.784 12.88 6.256 4.784 1.472 9.628 2.208 14.536 2.208 3.189 0 6.24-.354 9.154-1.058 2.912-.705 5.488-1.824 7.728-3.358 2.238-1.532 4.017-3.542 5.336-6.026 1.318-2.484 1.978-5.474 1.978-8.97 0-3.004-.492-5.535-1.472-7.59-.982-2.054-2.378-3.818-4.186-5.29-1.81-1.472-4.018-2.698-6.624-3.68-2.607-.98-5.506-1.9-8.694-2.76a159.302 159.302 0 0 1-6.486-1.748c-1.872-.552-3.419-1.164-4.646-1.84-1.228-.674-2.162-1.456-2.806-2.346-.644-.888-.966-2.008-.966-3.358 0-2.33.858-4.14 2.576-5.428 1.716-1.288 4.324-1.932 7.82-1.932 1.962 0 3.895.246 5.796.736 1.9.492 3.664 1.09 5.29 1.794 1.625.706 3.004 1.426 4.14 2.162 1.134.736 1.916 1.32 2.346 1.748l5.612-10.304c-2.884-1.962-6.256-3.664-10.12-5.106-3.864-1.44-8.096-2.162-12.696-2.162-3.312 0-6.41.445-9.292 1.334-2.884.89-5.414 2.193-7.59 3.91-2.178 1.718-3.88 3.864-5.106 6.44-1.228 2.576-1.84 5.52-1.84 8.832 0 2.516.382 4.678 1.15 6.486.767 1.81 1.917 3.404 3.45 4.784 1.532 1.38 3.45 2.576 5.75 3.588s5.014 1.948 8.142 2.806c2.576.736 4.906 1.412 6.992 2.024 2.084.614 3.864 1.288 5.336 2.024 1.472.736 2.606 1.595 3.404 2.576.796.982 1.196 2.178 1.196 3.588-.001 4.478-3.496 6.716-10.488 6.716zM188.079 235.92c2.79 3.068 6.133 5.552 10.028 7.452 3.894 1.902 8.233 2.852 13.018 2.852 3.128 0 6.072-.414 8.832-1.242a32.51 32.51 0 0 0 7.729-3.45l3.771 4.232h11.96l-8.924-10.028c2.698-3.004 4.799-6.44 6.302-10.304 1.502-3.864 2.254-7.912 2.254-12.144 0-4.108-.768-8.156-2.3-12.144-1.533-3.986-3.68-7.544-6.439-10.672-2.761-3.128-6.088-5.658-9.982-7.59-3.896-1.932-8.204-2.898-12.926-2.898-4.601 0-8.864.905-12.788 2.714-3.926 1.81-7.314 4.248-10.166 7.314-2.853 3.067-5.092 6.594-6.716 10.58-1.626 3.987-2.438 8.158-2.438 12.512 0 4.172.767 8.25 2.3 12.236 1.532 3.988 3.693 7.515 6.485 10.58zm5.336-30.774c.828-2.606 2.038-4.952 3.634-7.038 1.595-2.085 3.588-3.756 5.98-5.014 2.392-1.256 5.12-1.886 8.188-1.886 2.944 0 5.597.614 7.958 1.84 2.36 1.228 4.354 2.852 5.98 4.876 1.624 2.024 2.882 4.355 3.771 6.992a25.471 25.471 0 0 1 1.334 8.188 25.34 25.34 0 0 1-1.012 7.084c-.676 2.332-1.626 4.478-2.852 6.44l-4.508-5.06h-11.961l9.937 11.224a18.462 18.462 0 0 1-4.002 1.61c-1.442.399-2.99.598-4.646.598-3.006 0-5.689-.612-8.05-1.84-2.361-1.226-4.355-2.852-5.98-4.876-1.626-2.024-2.868-4.354-3.727-6.992a26.263 26.263 0 0 1-1.288-8.188 26.21 26.21 0 0 1 1.244-7.958zM298.708 234.633h-33.303v-54.188h-12.697v65.32h46z"/></svg>