<svg xmlns="http://www.w3.org/2000/svg" xml:space="preserve" style="enable-background:new 0 0 263 300" viewBox="0 0 263 300"><style>.st23{display:none}</style><g id="Layer_3"><path d="M262.8 81v-.7c0-.6-.1-1.2-.2-1.8-.5-3.2-2.5-5.9-5.3-7.6-.3-.1-.5-.3-.8-.4L137 1.5c-3.4-1.9-7.5-1.9-10.8 0L5.6 71C2.2 72.9.2 76.5.2 80.4L.1 219.5c0 3.9 2.1 7.4 5.4 9.4L126 298.5c1.6 1 3.5 1.5 5.4 1.5h.2c1.9 0 3.8-.5 5.4-1.5l120.5-69.6c3.4-1.9 5.4-5.5 5.4-9.4L262.8 81z" style="fill:#fff"/><path d="M239.6 87.6v124.8l-108.1 62.4V150z" style="fill:#0c94aa"/><path d="M239.6 87.6 131.5 150 23.4 87.6l108.1-62.4z" style="fill:#2bafac"/><path d="M131.5 150v124.8L23.4 212.4V87.6z" style="fill:#09cfbb"/></g></svg>